<svg width="24" height="24" viewBox="0 0 24 24" fill="none" xmlns="http://www.w3.org/2000/svg">
<path d="M3.09265 9.26528H20.9166" stroke="#ADADAD" stroke-width="1.5" stroke-linecap="round" stroke-linejoin="round"/>
<path d="M16.4421 13.113H16.4514" stroke="#ADADAD" stroke-width="1.5" stroke-linecap="round" stroke-linejoin="round"/>
<path d="M12.0046 13.113H12.0139" stroke="#ADADAD" stroke-width="1.5" stroke-linecap="round" stroke-linejoin="round"/>
<path d="M7.55793 13.113H7.5672" stroke="#ADADAD" stroke-width="1.5" stroke-linecap="round" stroke-linejoin="round"/>
<path d="M16.4421 16.9421H16.4514" stroke="#ADADAD" stroke-width="1.5" stroke-linecap="round" stroke-linejoin="round"/>
<path d="M12.0046 16.9421C12.0046 16.9421 12.0103 16.9421 12.0139 16.9421" stroke="#ADADAD" stroke-width="1.5" stroke-linecap="round" stroke-linejoin="round"/>
<path d="M7.55793 16.9421H7.5672" stroke="#ADADAD" stroke-width="1.5" stroke-linecap="round" stroke-linejoin="round"/>
<path d="M16.0438 1.97044V5.21259" stroke="#ADADAD" stroke-width="1.5" stroke-linecap="round" stroke-linejoin="round"/>
<path d="M7.96552 1.97044V5.21259" stroke="#ADADAD" stroke-width="1.5" stroke-linecap="round" stroke-linejoin="round"/>
<path fill-rule="evenodd" clip-rule="evenodd" d="M16.2383 3.5263H7.77096C4.83427 3.5263 3 5.13806 3 8.10071V17.0166C3 20.0259 4.83427 21.6749 7.77096 21.6749H16.229C19.175 21.6749 21 20.0538 21 17.0911V8.10071C21.0092 5.13806 19.1842 3.5263 16.2383 3.5263Z" stroke="#ADADAD" stroke-width="1.5" stroke-linecap="round" stroke-linejoin="round"/>
</svg>
