<svg width="18" height="18" viewBox="0 0 18 18" fill="none" xmlns="http://www.w3.org/2000/svg">
<path d="M8.285 1.03217H5.16917C2.60667 1.03217 1 2.84633 1 5.41466V12.343C1 14.9113 2.59917 16.7255 5.16917 16.7255H12.5225C15.0933 16.7255 16.6925 14.9113 16.6925 12.343V8.98633" stroke="#199A8E" stroke-width="1.5" stroke-linecap="round" stroke-linejoin="round"/>
<path fill-rule="evenodd" clip-rule="evenodd" d="M6.06459 7.80875L12.2921 1.58125C13.0679 0.80625 14.3254 0.80625 15.1013 1.58125L16.1154 2.59542C16.8913 3.37125 16.8913 4.62958 16.1154 5.40458L9.85792 11.6621C9.51876 12.0013 9.05876 12.1921 8.57876 12.1921H5.45709L5.53543 9.04208C5.54709 8.57875 5.73626 8.13708 6.06459 7.80875Z" stroke="#199A8E" stroke-width="1.5" stroke-linecap="round" stroke-linejoin="round"/>
<path d="M11.3458 2.5434L15.1508 6.3484" stroke="#199A8E" stroke-width="1.5" stroke-linecap="round" stroke-linejoin="round"/>
</svg>
