<svg width="24" height="24" viewBox="0 0 24 24" fill="none" xmlns="http://www.w3.org/2000/svg">
<path d="M9.14373 20.475V17.4534C9.14372 16.6878 9.77567 16.0657 10.5584 16.0609H13.4326C14.2189 16.0609 14.8563 16.6844 14.8563 17.4534V20.4662C14.8562 21.1303 15.404 21.67 16.0829 21.6748H18.0438C18.9596 21.6772 19.8388 21.3229 20.4872 20.6904C21.1356 20.0578 21.5 19.1988 21.5 18.303V9.72005C21.5 8.99644 21.1721 8.31006 20.6046 7.84581L13.943 2.63475C12.7785 1.72327 11.1154 1.75272 9.98539 2.70481L3.46701 7.84581C2.87274 8.29638 2.51755 8.98479 2.5 9.72005V18.2942C2.5 20.1613 4.04738 21.6748 5.95617 21.6748H7.87229C8.19917 21.6772 8.51349 21.5518 8.74547 21.3265C8.97746 21.1013 9.10793 20.7947 9.10792 20.475H9.14373Z" fill="#199A8E"/>
</svg>
