<!-- icon666.com - MILLIONS vector ICONS FREE --><svg id="Capa_1" enable-background="new 0 0 511.5 511.5" viewBox="0 0 511.5 511.5" xmlns="http://www.w3.org/2000/svg"><g id="Outline_00000095336361622361156970000018406969489869867698_" fill="#013b95"><path d="m424.355 117.897c-13.77-33.714-37.483-62.601-68.796-83.727-33.132-22.355-72.227-34.17-113.059-34.17-106.891 0-193.964 81.82-194.928 182.729l-44.907 96.08c-3.543 7.581-3.463 16.238.222 23.753 3.685 7.514 10.481 12.879 18.646 14.719l32.538 7.332 5.592 63.783c1.479 16.859 9.165 32.441 21.645 43.874 12.479 11.433 28.673 17.73 45.597 17.73h6.659v61.5h15v-61.5h59.372v-15h-81.03c-27.42 0-49.904-20.599-52.3-47.915l-6.549-74.697-43.226-9.74c-3.711-.837-6.801-3.275-8.476-6.69-1.675-3.416-1.712-7.351-.101-10.797l46.31-99.081v-1.666c0-93.416 80.719-169.414 179.936-169.414 71.158 0 135.569 39.811 164.307 100.28-2.601-.181-5.225-.28-7.871-.28-5.607 0-11.118.418-16.508 1.214-4.575-23.337-24.339-40.844-48.603-42.137-7.805-16.394-24.421-27.077-42.889-27.077-5.807 0-11.431 1.027-16.78 3.06-10.053-7.81-22.381-12.06-35.22-12.06-11.607 0-22.658 3.396-32.172 9.854-3.258-.567-6.55-.854-9.828-.854-22.376 0-42.817 13.22-52.168 33.309-26.131 5.638-45.332 29.062-45.332 56.191 0 31.706 25.794 57.5 57.5 57.5 4.069 0 8.093-.425 12.031-1.268 7.743 16.36 24.489 27.268 42.969 27.268 3.656 0 7.271-.415 10.788-1.237 7.542 4.746 16.185 7.237 25.212 7.237 4.162 0 8.243-.529 12.196-1.579 6.165 9.485 15.478 16.419 26.304 19.614v11.186c0 2.611.107 5.205.309 7.779h-52.809c-13.509 0-24.5 10.99-24.5 24.5s10.991 24.5 24.5 24.5h30c6.341 0 11.5 5.159 11.5 11.5s-5.159 11.5-11.5 11.5h-97v15h97c14.612 0 26.5-11.888 26.5-26.5s-11.888-26.5-26.5-26.5h-30c-5.238 0-9.5-4.262-9.5-9.5s4.262-9.5 9.5-9.5h55.167c4.13 17.336 12.97 33.245 25.89 46.164 7.379 7.379 11.443 17.189 11.443 27.625v15.711c0 13.552 3.747 26.241 10.245 37.104l-14.579 18.242v88.654h15v-83.396l8.9-11.137c13.241 14.159 32.065 23.033 52.934 23.033 39.977 0 72.5-32.523 72.5-72.5v-15.711c0-10.436 4.064-20.246 11.443-27.625 18.416-18.415 28.557-42.899 28.557-68.943v-27.721c0-53.294-37.25-98.05-87.081-109.603zm-137.919 109.603v.562c-6.962-3.175-12.671-8.752-15.997-15.919l-3.062-6.599-6.689 2.859c-4.031 1.723-8.321 2.597-12.752 2.597-7.046 0-13.744-2.215-19.371-6.405l-.145-.108c-2.498-3.302-3.726-7.497-3.458-12.059.336-5.72 2.921-11.269 7.277-15.624l-10.606-10.607c-6.957 6.957-11.092 15.96-11.645 25.351-.278 4.725.366 9.269 1.846 13.449-14.324-.046-27.107-9.66-31.107-23.42l-.169-.582c1.482-16.754 17.674-29.995 37.378-29.995 20.678 0 37.5 14.579 37.5 32.5h15c0-26.191-23.551-47.5-52.5-47.5-26.919 0-49.159 18.428-52.147 42.071-2.896.616-5.857.929-8.853.929-23.435 0-42.5-19.065-42.5-42.5 0-21.139 15.767-39.232 36.675-42.089l1.911-.261c16.478 1.56 29.414 15.47 29.414 32.35h15c0-22.071-15.133-40.673-35.567-45.98 7.82-11.365 20.917-18.52 35.067-18.52 3.276 0 6.58.39 9.819 1.158l.223.053c3.483 2.597 10.047 8.863 6.172 17.096l13.572 6.387c5.854-12.44 1.308-23.011-4.917-30.096 5.345-2.368 11.136-3.598 17.131-3.598 7.553 0 14.863 1.999 21.28 5.723-14.963 13.451-20.273 35.557-11.577 54.858l13.676-6.162c-7.339-16.289-.101-35.499 16.133-42.912 3.959-1.658 8.148-2.507 12.489-2.507 13.713 0 25.92 8.619 30.565 21.49 1.891 7.524.846 15.154-3.029 21.695-4.813 8.123-13.64 13.936-24.218 15.947l2.803 14.736c14.805-2.816 27.314-11.213 34.32-23.037 4.242-7.16 6.266-15.141 6.031-23.272 15.36 2.634 27.457 14.488 30.361 29.837-46.921 13.548-81.334 56.88-81.334 108.104zm210 27.721c0 22.037-8.582 42.755-24.164 58.336-10.212 10.213-15.836 23.79-15.836 38.232v15.711c0 31.706-25.794 57.5-57.5 57.5s-57.5-25.794-57.5-57.5v-15.711c0-14.442-5.624-28.02-15.836-38.232-15.582-15.581-24.164-36.299-24.164-58.336v-27.721c0-53.762 43.738-97.5 97.5-97.5s97.5 43.738 97.5 97.5z"></path><path d="m398.936 305c-15.164 0-27.5 12.337-27.5 27.5v40c0 15.163 12.336 27.5 27.5 27.5s27.5-12.337 27.5-27.5v-40c0-15.163-12.337-27.5-27.5-27.5zm12.5 67.5c0 6.893-5.607 12.5-12.5 12.5s-12.5-5.607-12.5-12.5v-40c0-6.893 5.607-12.5 12.5-12.5s12.5 5.607 12.5 12.5z"></path><path d="m389.436 238.5c0-19.023-15.477-34.5-34.5-34.5h-5.321l-1.758 5.022c-5.669 16.197-22.265 22.351-22.398 22.398l-5.022 1.758v5.321c0 19.023 15.477 34.5 34.5 34.5s34.499-15.476 34.499-34.499zm-34.5 19.5c-9.182 0-16.902-6.38-18.961-14.938 6.543-3.446 17.292-10.7 23.675-23.485 8.482 2.113 14.787 9.797 14.787 18.924-.001 10.751-8.749 19.499-19.501 19.499z"></path><path d="m450.015 209.022-1.758-5.022h-5.321c-19.023 0-34.5 15.477-34.5 34.5s15.477 34.5 34.5 34.5 34.5-15.477 34.5-34.5v-5.321l-5.022-1.758c-.167-.058-16.659-5.997-22.399-22.399zm-7.079 48.978c-10.752 0-19.5-8.748-19.5-19.5 0-9.127 6.304-16.811 14.787-18.924 6.383 12.785 17.131 20.039 23.675 23.485-2.061 8.559-9.781 14.939-18.962 14.939z"></path></g></svg>